<mxfile host="app.diagrams.net" modified="2023-03-31T09:24:06.720Z" agent="Mozilla/5.0 (Windows NT 10.0; Win64; x64) AppleWebKit/537.36 (KHTML, like Gecko) Chrome/111.0.0.0 Safari/537.36" etag="hZWiGPw5BD0tlfhwWxwg" version="21.1.2" type="device">
  <diagram id="C5RBs43oDa-KdzZeNtuy" name="Page-1">
    <mxGraphModel dx="1366" dy="673" grid="1" gridSize="10" guides="1" tooltips="1" connect="1" arrows="1" fold="1" page="1" pageScale="1" pageWidth="827" pageHeight="1169" math="0" shadow="0">
      <root>
        <mxCell id="WIyWlLk6GJQsqaUBKTNV-0" />
        <mxCell id="WIyWlLk6GJQsqaUBKTNV-1" parent="WIyWlLk6GJQsqaUBKTNV-0" />
        <mxCell id="1y-8TdBXX_tXYGB50Xov-0" value="Start" style="ellipse;whiteSpace=wrap;html=1;" vertex="1" parent="WIyWlLk6GJQsqaUBKTNV-1">
          <mxGeometry x="45" y="10" width="70" height="30" as="geometry" />
        </mxCell>
        <mxCell id="1y-8TdBXX_tXYGB50Xov-2" value="UpdateMonitor" style="rounded=1;whiteSpace=wrap;html=1;" vertex="1" parent="WIyWlLk6GJQsqaUBKTNV-1">
          <mxGeometry x="168.5" y="10" width="120" height="30" as="geometry" />
        </mxCell>
        <mxCell id="1y-8TdBXX_tXYGB50Xov-3" style="edgeStyle=orthogonalEdgeStyle;rounded=0;orthogonalLoop=1;jettySize=auto;html=1;exitX=0.5;exitY=1;exitDx=0;exitDy=0;" edge="1" parent="WIyWlLk6GJQsqaUBKTNV-1">
          <mxGeometry relative="1" as="geometry">
            <mxPoint x="420" y="124" as="sourcePoint" />
            <mxPoint x="420" y="124" as="targetPoint" />
          </mxGeometry>
        </mxCell>
        <mxCell id="1y-8TdBXX_tXYGB50Xov-4" value="Process.GetProcessesByName" style="rounded=1;whiteSpace=wrap;html=1;" vertex="1" parent="WIyWlLk6GJQsqaUBKTNV-1">
          <mxGeometry x="140" y="167" width="180" height="30" as="geometry" />
        </mxCell>
        <mxCell id="1y-8TdBXX_tXYGB50Xov-38" value="" style="edgeStyle=orthogonalEdgeStyle;rounded=0;orthogonalLoop=1;jettySize=auto;html=1;" edge="1" parent="WIyWlLk6GJQsqaUBKTNV-1" source="1y-8TdBXX_tXYGB50Xov-5" target="1y-8TdBXX_tXYGB50Xov-22">
          <mxGeometry relative="1" as="geometry" />
        </mxCell>
        <mxCell id="1y-8TdBXX_tXYGB50Xov-5" value="processes.Any?" style="rhombus;whiteSpace=wrap;html=1;" vertex="1" parent="WIyWlLk6GJQsqaUBKTNV-1">
          <mxGeometry x="175" y="210" width="110" height="60" as="geometry" />
        </mxCell>
        <mxCell id="1y-8TdBXX_tXYGB50Xov-6" value="proc.Kill" style="rounded=1;whiteSpace=wrap;html=1;" vertex="1" parent="WIyWlLk6GJQsqaUBKTNV-1">
          <mxGeometry x="45" y="290" width="70" height="30" as="geometry" />
        </mxCell>
        <mxCell id="1y-8TdBXX_tXYGB50Xov-7" value="set backupPath" style="rounded=1;whiteSpace=wrap;html=1;" vertex="1" parent="WIyWlLk6GJQsqaUBKTNV-1">
          <mxGeometry x="170" y="290" width="120" height="30" as="geometry" />
        </mxCell>
        <mxCell id="1y-8TdBXX_tXYGB50Xov-8" value="!Directory.&lt;br&gt;Exists(backupPath)?" style="rhombus;whiteSpace=wrap;html=1;" vertex="1" parent="WIyWlLk6GJQsqaUBKTNV-1">
          <mxGeometry x="165" y="340" width="130" height="80" as="geometry" />
        </mxCell>
        <mxCell id="1y-8TdBXX_tXYGB50Xov-9" value="set backupPath&amp;nbsp;" style="rounded=1;whiteSpace=wrap;html=1;" vertex="1" parent="WIyWlLk6GJQsqaUBKTNV-1">
          <mxGeometry x="15" y="365" width="125" height="30" as="geometry" />
        </mxCell>
        <mxCell id="1y-8TdBXX_tXYGB50Xov-10" value="Set result = fileManager.UpdateFiles(sourceFolder, targetFolder, backupDir)" style="rounded=1;whiteSpace=wrap;html=1;" vertex="1" parent="WIyWlLk6GJQsqaUBKTNV-1">
          <mxGeometry x="122.5" y="490" width="215" height="40" as="geometry" />
        </mxCell>
        <mxCell id="1y-8TdBXX_tXYGB50Xov-36" value="" style="edgeStyle=orthogonalEdgeStyle;rounded=0;orthogonalLoop=1;jettySize=auto;html=1;" edge="1" parent="WIyWlLk6GJQsqaUBKTNV-1" source="1y-8TdBXX_tXYGB50Xov-16" target="1y-8TdBXX_tXYGB50Xov-20">
          <mxGeometry relative="1" as="geometry">
            <Array as="points">
              <mxPoint x="240" y="110" />
              <mxPoint x="240" y="110" />
            </Array>
          </mxGeometry>
        </mxCell>
        <mxCell id="1y-8TdBXX_tXYGB50Xov-16" value="new winServiceManager" style="rounded=1;whiteSpace=wrap;html=1;" vertex="1" parent="WIyWlLk6GJQsqaUBKTNV-1">
          <mxGeometry x="158.5" y="60" width="140" height="30" as="geometry" />
        </mxCell>
        <mxCell id="1y-8TdBXX_tXYGB50Xov-20" value="Process[] processes" style="rounded=1;whiteSpace=wrap;html=1;" vertex="1" parent="WIyWlLk6GJQsqaUBKTNV-1">
          <mxGeometry x="170" y="110" width="120" height="30" as="geometry" />
        </mxCell>
        <mxCell id="1y-8TdBXX_tXYGB50Xov-39" value="" style="edgeStyle=orthogonalEdgeStyle;rounded=0;orthogonalLoop=1;jettySize=auto;html=1;" edge="1" parent="WIyWlLk6GJQsqaUBKTNV-1" source="1y-8TdBXX_tXYGB50Xov-22" target="1y-8TdBXX_tXYGB50Xov-6">
          <mxGeometry relative="1" as="geometry" />
        </mxCell>
        <mxCell id="1y-8TdBXX_tXYGB50Xov-22" value="proc in processes" style="rounded=1;whiteSpace=wrap;html=1;" vertex="1" parent="WIyWlLk6GJQsqaUBKTNV-1">
          <mxGeometry x="20" y="225" width="120" height="30" as="geometry" />
        </mxCell>
        <mxCell id="1y-8TdBXX_tXYGB50Xov-26" value="new fileManager" style="rounded=1;whiteSpace=wrap;html=1;" vertex="1" parent="WIyWlLk6GJQsqaUBKTNV-1">
          <mxGeometry x="180" y="440" width="100" height="30" as="geometry" />
        </mxCell>
        <mxCell id="1y-8TdBXX_tXYGB50Xov-28" value="createBackup = !string.IsNullOrEmpty(backupDir)" style="rounded=1;whiteSpace=wrap;html=1;" vertex="1" parent="WIyWlLk6GJQsqaUBKTNV-1">
          <mxGeometry x="370" y="490" width="190" height="40" as="geometry" />
        </mxCell>
        <mxCell id="1y-8TdBXX_tXYGB50Xov-29" value="create Backup?&amp;nbsp;" style="rhombus;whiteSpace=wrap;html=1;" vertex="1" parent="WIyWlLk6GJQsqaUBKTNV-1">
          <mxGeometry x="412.5" y="550" width="105" height="60" as="geometry" />
        </mxCell>
        <mxCell id="1y-8TdBXX_tXYGB50Xov-30" value="!Directory&lt;br&gt;Exists(backupDir)?" style="rhombus;whiteSpace=wrap;html=1;" vertex="1" parent="WIyWlLk6GJQsqaUBKTNV-1">
          <mxGeometry x="270" y="545" width="115" height="70" as="geometry" />
        </mxCell>
        <mxCell id="1y-8TdBXX_tXYGB50Xov-32" value="Directory.EnumerateFiles&lt;br&gt;ExecuteCommandExtensionInitial" style="rounded=1;whiteSpace=wrap;html=1;" vertex="1" parent="WIyWlLk6GJQsqaUBKTNV-1">
          <mxGeometry x="365" y="641" width="200" height="30" as="geometry" />
        </mxCell>
        <mxCell id="1y-8TdBXX_tXYGB50Xov-33" value="file in Directory.EnumerateFiles" style="rounded=1;whiteSpace=wrap;html=1;" vertex="1" parent="WIyWlLk6GJQsqaUBKTNV-1">
          <mxGeometry x="375" y="691" width="180" height="30" as="geometry" />
        </mxCell>
        <mxCell id="1y-8TdBXX_tXYGB50Xov-46" value="" style="endArrow=classic;html=1;rounded=0;entryX=0;entryY=0.5;entryDx=0;entryDy=0;" edge="1" parent="WIyWlLk6GJQsqaUBKTNV-1" target="1y-8TdBXX_tXYGB50Xov-7">
          <mxGeometry width="50" height="50" relative="1" as="geometry">
            <mxPoint x="115" y="305" as="sourcePoint" />
            <mxPoint x="165" y="255" as="targetPoint" />
          </mxGeometry>
        </mxCell>
        <mxCell id="1y-8TdBXX_tXYGB50Xov-48" value="" style="endArrow=classic;html=1;rounded=0;exitX=0.5;exitY=1;exitDx=0;exitDy=0;entryX=0.5;entryY=0;entryDx=0;entryDy=0;" edge="1" parent="WIyWlLk6GJQsqaUBKTNV-1" source="1y-8TdBXX_tXYGB50Xov-20" target="1y-8TdBXX_tXYGB50Xov-4">
          <mxGeometry width="50" height="50" relative="1" as="geometry">
            <mxPoint x="380" y="180" as="sourcePoint" />
            <mxPoint x="430" y="130" as="targetPoint" />
          </mxGeometry>
        </mxCell>
        <mxCell id="1y-8TdBXX_tXYGB50Xov-49" value="" style="endArrow=classic;html=1;rounded=0;exitX=0.5;exitY=1;exitDx=0;exitDy=0;entryX=0.5;entryY=0;entryDx=0;entryDy=0;" edge="1" parent="WIyWlLk6GJQsqaUBKTNV-1" source="1y-8TdBXX_tXYGB50Xov-4" target="1y-8TdBXX_tXYGB50Xov-5">
          <mxGeometry width="50" height="50" relative="1" as="geometry">
            <mxPoint x="580" y="340" as="sourcePoint" />
            <mxPoint x="630" y="290" as="targetPoint" />
          </mxGeometry>
        </mxCell>
        <mxCell id="1y-8TdBXX_tXYGB50Xov-50" value="" style="endArrow=classic;html=1;rounded=0;exitX=0.5;exitY=1;exitDx=0;exitDy=0;entryX=0.5;entryY=0;entryDx=0;entryDy=0;" edge="1" parent="WIyWlLk6GJQsqaUBKTNV-1" source="1y-8TdBXX_tXYGB50Xov-5" target="1y-8TdBXX_tXYGB50Xov-7">
          <mxGeometry width="50" height="50" relative="1" as="geometry">
            <mxPoint x="320" y="280" as="sourcePoint" />
            <mxPoint x="370" y="230" as="targetPoint" />
          </mxGeometry>
        </mxCell>
        <mxCell id="1y-8TdBXX_tXYGB50Xov-51" value="" style="endArrow=classic;html=1;rounded=0;exitX=0.5;exitY=1;exitDx=0;exitDy=0;entryX=0.5;entryY=0;entryDx=0;entryDy=0;" edge="1" parent="WIyWlLk6GJQsqaUBKTNV-1" source="1y-8TdBXX_tXYGB50Xov-7" target="1y-8TdBXX_tXYGB50Xov-8">
          <mxGeometry width="50" height="50" relative="1" as="geometry">
            <mxPoint x="325" y="350" as="sourcePoint" />
            <mxPoint x="375" y="300" as="targetPoint" />
          </mxGeometry>
        </mxCell>
        <mxCell id="1y-8TdBXX_tXYGB50Xov-52" value="" style="endArrow=classic;html=1;rounded=0;exitX=0;exitY=0.5;exitDx=0;exitDy=0;entryX=1;entryY=0.5;entryDx=0;entryDy=0;" edge="1" parent="WIyWlLk6GJQsqaUBKTNV-1" source="1y-8TdBXX_tXYGB50Xov-8" target="1y-8TdBXX_tXYGB50Xov-9">
          <mxGeometry width="50" height="50" relative="1" as="geometry">
            <mxPoint x="580" y="340" as="sourcePoint" />
            <mxPoint x="630" y="290" as="targetPoint" />
          </mxGeometry>
        </mxCell>
        <mxCell id="1y-8TdBXX_tXYGB50Xov-53" value="" style="endArrow=classic;html=1;rounded=0;exitX=0.5;exitY=1;exitDx=0;exitDy=0;entryX=0.5;entryY=0;entryDx=0;entryDy=0;" edge="1" parent="WIyWlLk6GJQsqaUBKTNV-1" source="1y-8TdBXX_tXYGB50Xov-8" target="1y-8TdBXX_tXYGB50Xov-26">
          <mxGeometry width="50" height="50" relative="1" as="geometry">
            <mxPoint x="600" y="320" as="sourcePoint" />
            <mxPoint x="650" y="270" as="targetPoint" />
          </mxGeometry>
        </mxCell>
        <mxCell id="1y-8TdBXX_tXYGB50Xov-54" value="" style="endArrow=classic;html=1;rounded=0;exitX=0.5;exitY=1;exitDx=0;exitDy=0;" edge="1" parent="WIyWlLk6GJQsqaUBKTNV-1" source="1y-8TdBXX_tXYGB50Xov-26" target="1y-8TdBXX_tXYGB50Xov-10">
          <mxGeometry width="50" height="50" relative="1" as="geometry">
            <mxPoint x="600" y="520" as="sourcePoint" />
            <mxPoint x="650" y="470" as="targetPoint" />
          </mxGeometry>
        </mxCell>
        <mxCell id="1y-8TdBXX_tXYGB50Xov-55" value="" style="endArrow=classic;html=1;rounded=0;entryX=0;entryY=0.5;entryDx=0;entryDy=0;" edge="1" parent="WIyWlLk6GJQsqaUBKTNV-1" target="1y-8TdBXX_tXYGB50Xov-28">
          <mxGeometry width="50" height="50" relative="1" as="geometry">
            <mxPoint x="340" y="510" as="sourcePoint" />
            <mxPoint x="330" y="590" as="targetPoint" />
          </mxGeometry>
        </mxCell>
        <mxCell id="1y-8TdBXX_tXYGB50Xov-56" value="CreateDirectory(backupDir)" style="rounded=1;whiteSpace=wrap;html=1;" vertex="1" parent="WIyWlLk6GJQsqaUBKTNV-1">
          <mxGeometry x="90" y="565" width="150" height="30" as="geometry" />
        </mxCell>
        <mxCell id="1y-8TdBXX_tXYGB50Xov-57" value="" style="endArrow=classic;html=1;rounded=0;exitX=0.5;exitY=1;exitDx=0;exitDy=0;entryX=0.5;entryY=0;entryDx=0;entryDy=0;" edge="1" parent="WIyWlLk6GJQsqaUBKTNV-1" source="1y-8TdBXX_tXYGB50Xov-28" target="1y-8TdBXX_tXYGB50Xov-29">
          <mxGeometry width="50" height="50" relative="1" as="geometry">
            <mxPoint x="600" y="620" as="sourcePoint" />
            <mxPoint x="650" y="570" as="targetPoint" />
          </mxGeometry>
        </mxCell>
        <mxCell id="1y-8TdBXX_tXYGB50Xov-61" value="" style="endArrow=classic;html=1;rounded=0;exitX=0.5;exitY=1;exitDx=0;exitDy=0;entryX=0.5;entryY=0;entryDx=0;entryDy=0;" edge="1" parent="WIyWlLk6GJQsqaUBKTNV-1" source="1y-8TdBXX_tXYGB50Xov-32" target="1y-8TdBXX_tXYGB50Xov-33">
          <mxGeometry width="50" height="50" relative="1" as="geometry">
            <mxPoint x="600" y="641" as="sourcePoint" />
            <mxPoint x="650" y="591" as="targetPoint" />
          </mxGeometry>
        </mxCell>
        <mxCell id="1y-8TdBXX_tXYGB50Xov-64" value="Add&lt;br&gt;Command&lt;br&gt;Extension?" style="rhombus;whiteSpace=wrap;html=1;" vertex="1" parent="WIyWlLk6GJQsqaUBKTNV-1">
          <mxGeometry x="402.5" y="741" width="125" height="80" as="geometry" />
        </mxCell>
        <mxCell id="1y-8TdBXX_tXYGB50Xov-65" value="Xdt&lt;br&gt;Merge&lt;br&gt;Command&lt;br&gt;Extension?" style="rhombus;whiteSpace=wrap;html=1;" vertex="1" parent="WIyWlLk6GJQsqaUBKTNV-1">
          <mxGeometry x="402.5" y="841" width="125" height="80" as="geometry" />
        </mxCell>
        <mxCell id="1y-8TdBXX_tXYGB50Xov-66" value="Update&lt;br&gt;Command&lt;br&gt;Extension?" style="rhombus;whiteSpace=wrap;html=1;" vertex="1" parent="WIyWlLk6GJQsqaUBKTNV-1">
          <mxGeometry x="402.5" y="941" width="125" height="80" as="geometry" />
        </mxCell>
        <mxCell id="1y-8TdBXX_tXYGB50Xov-67" value="Delete &lt;br&gt;Command &lt;br&gt;Extension?" style="rhombus;whiteSpace=wrap;html=1;" vertex="1" parent="WIyWlLk6GJQsqaUBKTNV-1">
          <mxGeometry x="402.5" y="1041" width="125" height="80" as="geometry" />
        </mxCell>
        <mxCell id="1y-8TdBXX_tXYGB50Xov-68" value="Execute&lt;br&gt;Command&lt;br&gt;Extension?" style="rhombus;whiteSpace=wrap;html=1;" vertex="1" parent="WIyWlLk6GJQsqaUBKTNV-1">
          <mxGeometry x="402.5" y="1141" width="125" height="80" as="geometry" />
        </mxCell>
        <mxCell id="1y-8TdBXX_tXYGB50Xov-69" value="" style="endArrow=classic;html=1;rounded=0;exitX=0.5;exitY=1;exitDx=0;exitDy=0;entryX=0.5;entryY=0;entryDx=0;entryDy=0;" edge="1" parent="WIyWlLk6GJQsqaUBKTNV-1" source="1y-8TdBXX_tXYGB50Xov-33" target="1y-8TdBXX_tXYGB50Xov-64">
          <mxGeometry width="50" height="50" relative="1" as="geometry">
            <mxPoint x="600" y="821" as="sourcePoint" />
            <mxPoint x="650" y="771" as="targetPoint" />
          </mxGeometry>
        </mxCell>
        <mxCell id="1y-8TdBXX_tXYGB50Xov-70" value="" style="endArrow=classic;html=1;rounded=0;exitX=0.5;exitY=1;exitDx=0;exitDy=0;entryX=0.5;entryY=0;entryDx=0;entryDy=0;" edge="1" parent="WIyWlLk6GJQsqaUBKTNV-1" source="1y-8TdBXX_tXYGB50Xov-64" target="1y-8TdBXX_tXYGB50Xov-65">
          <mxGeometry width="50" height="50" relative="1" as="geometry">
            <mxPoint x="600" y="821" as="sourcePoint" />
            <mxPoint x="650" y="771" as="targetPoint" />
          </mxGeometry>
        </mxCell>
        <mxCell id="1y-8TdBXX_tXYGB50Xov-71" value="" style="endArrow=classic;html=1;rounded=0;exitX=0.5;exitY=1;exitDx=0;exitDy=0;entryX=0.5;entryY=0;entryDx=0;entryDy=0;" edge="1" parent="WIyWlLk6GJQsqaUBKTNV-1" source="1y-8TdBXX_tXYGB50Xov-65" target="1y-8TdBXX_tXYGB50Xov-66">
          <mxGeometry width="50" height="50" relative="1" as="geometry">
            <mxPoint x="600" y="1121" as="sourcePoint" />
            <mxPoint x="650" y="1071" as="targetPoint" />
          </mxGeometry>
        </mxCell>
        <mxCell id="1y-8TdBXX_tXYGB50Xov-72" value="" style="endArrow=classic;html=1;rounded=0;exitX=0.5;exitY=1;exitDx=0;exitDy=0;entryX=0.5;entryY=0;entryDx=0;entryDy=0;" edge="1" parent="WIyWlLk6GJQsqaUBKTNV-1" source="1y-8TdBXX_tXYGB50Xov-66" target="1y-8TdBXX_tXYGB50Xov-67">
          <mxGeometry width="50" height="50" relative="1" as="geometry">
            <mxPoint x="600" y="1121" as="sourcePoint" />
            <mxPoint x="650" y="1071" as="targetPoint" />
          </mxGeometry>
        </mxCell>
        <mxCell id="1y-8TdBXX_tXYGB50Xov-73" value="" style="endArrow=classic;html=1;rounded=0;exitX=0.5;exitY=1;exitDx=0;exitDy=0;entryX=0.5;entryY=0;entryDx=0;entryDy=0;" edge="1" parent="WIyWlLk6GJQsqaUBKTNV-1" source="1y-8TdBXX_tXYGB50Xov-67" target="1y-8TdBXX_tXYGB50Xov-68">
          <mxGeometry width="50" height="50" relative="1" as="geometry">
            <mxPoint x="600" y="1121" as="sourcePoint" />
            <mxPoint x="650" y="1071" as="targetPoint" />
          </mxGeometry>
        </mxCell>
        <mxCell id="1y-8TdBXX_tXYGB50Xov-74" value="BackupFile&lt;br&gt;CopyFile" style="rounded=1;whiteSpace=wrap;html=1;" vertex="1" parent="WIyWlLk6GJQsqaUBKTNV-1">
          <mxGeometry x="680" y="761" width="90" height="40" as="geometry" />
        </mxCell>
        <mxCell id="1y-8TdBXX_tXYGB50Xov-75" value="createBackup?" style="rhombus;whiteSpace=wrap;html=1;" vertex="1" parent="WIyWlLk6GJQsqaUBKTNV-1">
          <mxGeometry x="550" y="751" width="100" height="60" as="geometry" />
        </mxCell>
        <mxCell id="1y-8TdBXX_tXYGB50Xov-77" value="createBackup?" style="rhombus;whiteSpace=wrap;html=1;" vertex="1" parent="WIyWlLk6GJQsqaUBKTNV-1">
          <mxGeometry x="550" y="851" width="100" height="60" as="geometry" />
        </mxCell>
        <mxCell id="1y-8TdBXX_tXYGB50Xov-78" value="createBackup?" style="rhombus;whiteSpace=wrap;html=1;" vertex="1" parent="WIyWlLk6GJQsqaUBKTNV-1">
          <mxGeometry x="550" y="951" width="100" height="60" as="geometry" />
        </mxCell>
        <mxCell id="1y-8TdBXX_tXYGB50Xov-79" value="createBackup?" style="rhombus;whiteSpace=wrap;html=1;" vertex="1" parent="WIyWlLk6GJQsqaUBKTNV-1">
          <mxGeometry x="550" y="1051" width="100" height="60" as="geometry" />
        </mxCell>
        <mxCell id="1y-8TdBXX_tXYGB50Xov-80" value="BackupFile&lt;br&gt;MergeXDT" style="rounded=1;whiteSpace=wrap;html=1;" vertex="1" parent="WIyWlLk6GJQsqaUBKTNV-1">
          <mxGeometry x="680" y="861" width="90" height="40" as="geometry" />
        </mxCell>
        <mxCell id="1y-8TdBXX_tXYGB50Xov-81" value="BackupFile&lt;br&gt;CopyFile" style="rounded=1;whiteSpace=wrap;html=1;" vertex="1" parent="WIyWlLk6GJQsqaUBKTNV-1">
          <mxGeometry x="680" y="961" width="90" height="40" as="geometry" />
        </mxCell>
        <mxCell id="1y-8TdBXX_tXYGB50Xov-82" value="BackupFile&lt;br&gt;RemoveFile" style="rounded=1;whiteSpace=wrap;html=1;" vertex="1" parent="WIyWlLk6GJQsqaUBKTNV-1">
          <mxGeometry x="680" y="1061" width="90" height="40" as="geometry" />
        </mxCell>
        <mxCell id="1y-8TdBXX_tXYGB50Xov-83" value="ExecuteBats" style="rounded=1;whiteSpace=wrap;html=1;" vertex="1" parent="WIyWlLk6GJQsqaUBKTNV-1">
          <mxGeometry x="680" y="1161" width="90" height="40" as="geometry" />
        </mxCell>
        <mxCell id="1y-8TdBXX_tXYGB50Xov-84" value="" style="endArrow=classic;html=1;rounded=0;exitX=1;exitY=0.5;exitDx=0;exitDy=0;entryX=0;entryY=0.5;entryDx=0;entryDy=0;" edge="1" parent="WIyWlLk6GJQsqaUBKTNV-1" source="1y-8TdBXX_tXYGB50Xov-64" target="1y-8TdBXX_tXYGB50Xov-75">
          <mxGeometry width="50" height="50" relative="1" as="geometry">
            <mxPoint x="540" y="771" as="sourcePoint" />
            <mxPoint x="590" y="721" as="targetPoint" />
          </mxGeometry>
        </mxCell>
        <mxCell id="1y-8TdBXX_tXYGB50Xov-85" value="" style="endArrow=classic;html=1;rounded=0;exitX=1;exitY=0.5;exitDx=0;exitDy=0;entryX=0;entryY=0.5;entryDx=0;entryDy=0;" edge="1" parent="WIyWlLk6GJQsqaUBKTNV-1" source="1y-8TdBXX_tXYGB50Xov-65" target="1y-8TdBXX_tXYGB50Xov-77">
          <mxGeometry width="50" height="50" relative="1" as="geometry">
            <mxPoint x="600" y="1021" as="sourcePoint" />
            <mxPoint x="650" y="971" as="targetPoint" />
          </mxGeometry>
        </mxCell>
        <mxCell id="1y-8TdBXX_tXYGB50Xov-86" value="" style="endArrow=classic;html=1;rounded=0;exitX=1;exitY=0.5;exitDx=0;exitDy=0;entryX=0;entryY=0.5;entryDx=0;entryDy=0;" edge="1" parent="WIyWlLk6GJQsqaUBKTNV-1" source="1y-8TdBXX_tXYGB50Xov-66" target="1y-8TdBXX_tXYGB50Xov-78">
          <mxGeometry width="50" height="50" relative="1" as="geometry">
            <mxPoint x="600" y="1021" as="sourcePoint" />
            <mxPoint x="650" y="971" as="targetPoint" />
          </mxGeometry>
        </mxCell>
        <mxCell id="1y-8TdBXX_tXYGB50Xov-87" value="" style="endArrow=classic;html=1;rounded=0;exitX=1;exitY=0.5;exitDx=0;exitDy=0;entryX=0;entryY=0.5;entryDx=0;entryDy=0;" edge="1" parent="WIyWlLk6GJQsqaUBKTNV-1" source="1y-8TdBXX_tXYGB50Xov-67" target="1y-8TdBXX_tXYGB50Xov-79">
          <mxGeometry width="50" height="50" relative="1" as="geometry">
            <mxPoint x="600" y="1021" as="sourcePoint" />
            <mxPoint x="650" y="971" as="targetPoint" />
          </mxGeometry>
        </mxCell>
        <mxCell id="1y-8TdBXX_tXYGB50Xov-88" value="" style="endArrow=classic;html=1;rounded=0;exitX=1;exitY=0.5;exitDx=0;exitDy=0;entryX=0;entryY=0.5;entryDx=0;entryDy=0;" edge="1" parent="WIyWlLk6GJQsqaUBKTNV-1" source="1y-8TdBXX_tXYGB50Xov-68" target="1y-8TdBXX_tXYGB50Xov-83">
          <mxGeometry width="50" height="50" relative="1" as="geometry">
            <mxPoint x="600" y="1021" as="sourcePoint" />
            <mxPoint x="650" y="971" as="targetPoint" />
          </mxGeometry>
        </mxCell>
        <mxCell id="1y-8TdBXX_tXYGB50Xov-89" value="" style="endArrow=classic;html=1;rounded=0;exitX=1;exitY=0.5;exitDx=0;exitDy=0;entryX=0;entryY=0.5;entryDx=0;entryDy=0;" edge="1" parent="WIyWlLk6GJQsqaUBKTNV-1" source="1y-8TdBXX_tXYGB50Xov-75" target="1y-8TdBXX_tXYGB50Xov-74">
          <mxGeometry width="50" height="50" relative="1" as="geometry">
            <mxPoint x="600" y="1021" as="sourcePoint" />
            <mxPoint x="650" y="971" as="targetPoint" />
          </mxGeometry>
        </mxCell>
        <mxCell id="1y-8TdBXX_tXYGB50Xov-90" value="" style="endArrow=classic;html=1;rounded=0;exitX=1;exitY=0.5;exitDx=0;exitDy=0;entryX=0;entryY=0.5;entryDx=0;entryDy=0;" edge="1" parent="WIyWlLk6GJQsqaUBKTNV-1" source="1y-8TdBXX_tXYGB50Xov-77" target="1y-8TdBXX_tXYGB50Xov-80">
          <mxGeometry width="50" height="50" relative="1" as="geometry">
            <mxPoint x="600" y="1021" as="sourcePoint" />
            <mxPoint x="650" y="971" as="targetPoint" />
          </mxGeometry>
        </mxCell>
        <mxCell id="1y-8TdBXX_tXYGB50Xov-91" value="" style="endArrow=classic;html=1;rounded=0;exitX=1;exitY=0.5;exitDx=0;exitDy=0;entryX=0;entryY=0.5;entryDx=0;entryDy=0;" edge="1" parent="WIyWlLk6GJQsqaUBKTNV-1" source="1y-8TdBXX_tXYGB50Xov-78" target="1y-8TdBXX_tXYGB50Xov-81">
          <mxGeometry width="50" height="50" relative="1" as="geometry">
            <mxPoint x="600" y="1021" as="sourcePoint" />
            <mxPoint x="650" y="971" as="targetPoint" />
          </mxGeometry>
        </mxCell>
        <mxCell id="1y-8TdBXX_tXYGB50Xov-92" value="" style="endArrow=classic;html=1;rounded=0;exitX=1;exitY=0.5;exitDx=0;exitDy=0;entryX=0;entryY=0.5;entryDx=0;entryDy=0;" edge="1" parent="WIyWlLk6GJQsqaUBKTNV-1" source="1y-8TdBXX_tXYGB50Xov-79" target="1y-8TdBXX_tXYGB50Xov-82">
          <mxGeometry width="50" height="50" relative="1" as="geometry">
            <mxPoint x="600" y="1021" as="sourcePoint" />
            <mxPoint x="650" y="971" as="targetPoint" />
          </mxGeometry>
        </mxCell>
        <mxCell id="1y-8TdBXX_tXYGB50Xov-97" value="Directory.EnumerateFiles&lt;br&gt;ExecuteCommandExtensionEnd" style="rounded=1;whiteSpace=wrap;html=1;" vertex="1" parent="WIyWlLk6GJQsqaUBKTNV-1">
          <mxGeometry x="365" y="1241" width="200" height="30" as="geometry" />
        </mxCell>
        <mxCell id="1y-8TdBXX_tXYGB50Xov-98" value="" style="endArrow=classic;html=1;rounded=0;exitX=0.5;exitY=1;exitDx=0;exitDy=0;entryX=0.5;entryY=0;entryDx=0;entryDy=0;" edge="1" parent="WIyWlLk6GJQsqaUBKTNV-1" source="1y-8TdBXX_tXYGB50Xov-68" target="1y-8TdBXX_tXYGB50Xov-97">
          <mxGeometry width="50" height="50" relative="1" as="geometry">
            <mxPoint x="600" y="1221" as="sourcePoint" />
            <mxPoint x="650" y="1171" as="targetPoint" />
          </mxGeometry>
        </mxCell>
        <mxCell id="1y-8TdBXX_tXYGB50Xov-99" value="" style="endArrow=classic;html=1;rounded=0;entryX=0;entryY=0.5;entryDx=0;entryDy=0;" edge="1" parent="WIyWlLk6GJQsqaUBKTNV-1" target="1y-8TdBXX_tXYGB50Xov-33">
          <mxGeometry width="50" height="50" relative="1" as="geometry">
            <mxPoint x="465" y="1230" as="sourcePoint" />
            <mxPoint x="340" y="1111" as="targetPoint" />
            <Array as="points">
              <mxPoint x="440" y="1230" />
              <mxPoint x="390" y="1230" />
              <mxPoint x="320" y="1230" />
              <mxPoint x="320" y="961" />
              <mxPoint x="320" y="821" />
              <mxPoint x="320" y="751" />
              <mxPoint x="320" y="706" />
            </Array>
          </mxGeometry>
        </mxCell>
        <mxCell id="1y-8TdBXX_tXYGB50Xov-100" value="" style="endArrow=classic;html=1;rounded=0;exitX=1;exitY=0.5;exitDx=0;exitDy=0;entryX=0;entryY=0.5;entryDx=0;entryDy=0;" edge="1" parent="WIyWlLk6GJQsqaUBKTNV-1" source="1y-8TdBXX_tXYGB50Xov-0" target="1y-8TdBXX_tXYGB50Xov-2">
          <mxGeometry width="50" height="50" relative="1" as="geometry">
            <mxPoint x="600" y="300" as="sourcePoint" />
            <mxPoint x="650" y="250" as="targetPoint" />
          </mxGeometry>
        </mxCell>
        <mxCell id="1y-8TdBXX_tXYGB50Xov-101" value="" style="endArrow=classic;html=1;rounded=0;exitX=0.5;exitY=1;exitDx=0;exitDy=0;entryX=0.5;entryY=0;entryDx=0;entryDy=0;" edge="1" parent="WIyWlLk6GJQsqaUBKTNV-1" source="1y-8TdBXX_tXYGB50Xov-2" target="1y-8TdBXX_tXYGB50Xov-16">
          <mxGeometry width="50" height="50" relative="1" as="geometry">
            <mxPoint x="600" y="300" as="sourcePoint" />
            <mxPoint x="650" y="250" as="targetPoint" />
          </mxGeometry>
        </mxCell>
        <mxCell id="1y-8TdBXX_tXYGB50Xov-104" value="Yes" style="text;html=1;strokeColor=none;fillColor=none;align=center;verticalAlign=middle;whiteSpace=wrap;rounded=0;fontSize=9;" vertex="1" parent="WIyWlLk6GJQsqaUBKTNV-1">
          <mxGeometry x="150" y="210" width="30" height="25" as="geometry" />
        </mxCell>
        <mxCell id="1y-8TdBXX_tXYGB50Xov-105" value="No" style="text;html=1;strokeColor=none;fillColor=none;align=center;verticalAlign=middle;whiteSpace=wrap;rounded=0;fontSize=9;" vertex="1" parent="WIyWlLk6GJQsqaUBKTNV-1">
          <mxGeometry x="240" y="255" width="30" height="25" as="geometry" />
        </mxCell>
        <mxCell id="1y-8TdBXX_tXYGB50Xov-106" value="Yes" style="text;html=1;strokeColor=none;fillColor=none;align=center;verticalAlign=middle;whiteSpace=wrap;rounded=0;fontSize=9;" vertex="1" parent="WIyWlLk6GJQsqaUBKTNV-1">
          <mxGeometry x="145" y="350" width="30" height="25" as="geometry" />
        </mxCell>
        <mxCell id="1y-8TdBXX_tXYGB50Xov-107" value="" style="endArrow=classic;html=1;rounded=0;exitX=0.5;exitY=1;exitDx=0;exitDy=0;entryX=0;entryY=0.5;entryDx=0;entryDy=0;" edge="1" parent="WIyWlLk6GJQsqaUBKTNV-1" source="1y-8TdBXX_tXYGB50Xov-9" target="1y-8TdBXX_tXYGB50Xov-26">
          <mxGeometry width="50" height="50" relative="1" as="geometry">
            <mxPoint x="600" y="500" as="sourcePoint" />
            <mxPoint x="650" y="450" as="targetPoint" />
            <Array as="points">
              <mxPoint x="78" y="455" />
            </Array>
          </mxGeometry>
        </mxCell>
        <mxCell id="1y-8TdBXX_tXYGB50Xov-108" value="No" style="text;html=1;strokeColor=none;fillColor=none;align=center;verticalAlign=middle;whiteSpace=wrap;rounded=0;fontSize=9;" vertex="1" parent="WIyWlLk6GJQsqaUBKTNV-1">
          <mxGeometry x="240" y="415" width="30" height="25" as="geometry" />
        </mxCell>
        <mxCell id="1y-8TdBXX_tXYGB50Xov-109" value="" style="endArrow=classic;html=1;rounded=0;exitX=0;exitY=0.5;exitDx=0;exitDy=0;entryX=1;entryY=0.5;entryDx=0;entryDy=0;" edge="1" parent="WIyWlLk6GJQsqaUBKTNV-1" source="1y-8TdBXX_tXYGB50Xov-29" target="1y-8TdBXX_tXYGB50Xov-30">
          <mxGeometry width="50" height="50" relative="1" as="geometry">
            <mxPoint x="600" y="800" as="sourcePoint" />
            <mxPoint x="650" y="750" as="targetPoint" />
          </mxGeometry>
        </mxCell>
        <mxCell id="1y-8TdBXX_tXYGB50Xov-110" value="" style="endArrow=classic;html=1;rounded=0;exitX=0;exitY=0.5;exitDx=0;exitDy=0;entryX=1;entryY=0.5;entryDx=0;entryDy=0;" edge="1" parent="WIyWlLk6GJQsqaUBKTNV-1" source="1y-8TdBXX_tXYGB50Xov-30" target="1y-8TdBXX_tXYGB50Xov-56">
          <mxGeometry width="50" height="50" relative="1" as="geometry">
            <mxPoint x="600" y="800" as="sourcePoint" />
            <mxPoint x="650" y="750" as="targetPoint" />
          </mxGeometry>
        </mxCell>
        <mxCell id="1y-8TdBXX_tXYGB50Xov-111" value="" style="endArrow=classic;html=1;rounded=0;exitX=0.5;exitY=1;exitDx=0;exitDy=0;entryX=0;entryY=0.5;entryDx=0;entryDy=0;" edge="1" parent="WIyWlLk6GJQsqaUBKTNV-1" source="1y-8TdBXX_tXYGB50Xov-56" target="1y-8TdBXX_tXYGB50Xov-32">
          <mxGeometry width="50" height="50" relative="1" as="geometry">
            <mxPoint x="600" y="800" as="sourcePoint" />
            <mxPoint x="320" y="660" as="targetPoint" />
            <Array as="points">
              <mxPoint x="165" y="656" />
            </Array>
          </mxGeometry>
        </mxCell>
        <mxCell id="1y-8TdBXX_tXYGB50Xov-112" value="" style="endArrow=classic;html=1;rounded=0;exitX=0.5;exitY=1;exitDx=0;exitDy=0;entryX=0.5;entryY=0;entryDx=0;entryDy=0;" edge="1" parent="WIyWlLk6GJQsqaUBKTNV-1" source="1y-8TdBXX_tXYGB50Xov-29" target="1y-8TdBXX_tXYGB50Xov-32">
          <mxGeometry width="50" height="50" relative="1" as="geometry">
            <mxPoint x="600" y="800" as="sourcePoint" />
            <mxPoint x="650" y="750" as="targetPoint" />
          </mxGeometry>
        </mxCell>
        <mxCell id="1y-8TdBXX_tXYGB50Xov-113" value="Yes" style="text;html=1;strokeColor=none;fillColor=none;align=center;verticalAlign=middle;whiteSpace=wrap;rounded=0;fontSize=9;" vertex="1" parent="WIyWlLk6GJQsqaUBKTNV-1">
          <mxGeometry x="390" y="550" width="30" height="25" as="geometry" />
        </mxCell>
        <mxCell id="1y-8TdBXX_tXYGB50Xov-114" value="No" style="text;html=1;strokeColor=none;fillColor=none;align=center;verticalAlign=middle;whiteSpace=wrap;rounded=0;fontSize=9;" vertex="1" parent="WIyWlLk6GJQsqaUBKTNV-1">
          <mxGeometry x="470" y="610" width="30" height="25" as="geometry" />
        </mxCell>
        <mxCell id="1y-8TdBXX_tXYGB50Xov-115" value="Yes" style="text;html=1;strokeColor=none;fillColor=none;align=center;verticalAlign=middle;whiteSpace=wrap;rounded=0;fontSize=9;" vertex="1" parent="WIyWlLk6GJQsqaUBKTNV-1">
          <mxGeometry x="250" y="550" width="30" height="25" as="geometry" />
        </mxCell>
        <mxCell id="1y-8TdBXX_tXYGB50Xov-116" value="" style="endArrow=classic;html=1;rounded=0;exitX=0.5;exitY=1;exitDx=0;exitDy=0;" edge="1" parent="WIyWlLk6GJQsqaUBKTNV-1" source="1y-8TdBXX_tXYGB50Xov-30">
          <mxGeometry width="50" height="50" relative="1" as="geometry">
            <mxPoint x="600" y="400" as="sourcePoint" />
            <mxPoint x="328" y="660" as="targetPoint" />
          </mxGeometry>
        </mxCell>
        <mxCell id="1y-8TdBXX_tXYGB50Xov-117" value="No" style="text;html=1;strokeColor=none;fillColor=none;align=center;verticalAlign=middle;whiteSpace=wrap;rounded=0;fontSize=9;" vertex="1" parent="WIyWlLk6GJQsqaUBKTNV-1">
          <mxGeometry x="330" y="610" width="30" height="25" as="geometry" />
        </mxCell>
        <mxCell id="1y-8TdBXX_tXYGB50Xov-118" value="Yes" style="text;html=1;strokeColor=none;fillColor=none;align=center;verticalAlign=middle;whiteSpace=wrap;rounded=0;fontSize=9;" vertex="1" parent="WIyWlLk6GJQsqaUBKTNV-1">
          <mxGeometry x="520" y="951" width="30" height="25" as="geometry" />
        </mxCell>
        <mxCell id="1y-8TdBXX_tXYGB50Xov-119" value="Yes" style="text;html=1;strokeColor=none;fillColor=none;align=center;verticalAlign=middle;whiteSpace=wrap;rounded=0;fontSize=9;" vertex="1" parent="WIyWlLk6GJQsqaUBKTNV-1">
          <mxGeometry x="520" y="1150" width="30" height="25" as="geometry" />
        </mxCell>
        <mxCell id="1y-8TdBXX_tXYGB50Xov-120" value="Yes" style="text;html=1;strokeColor=none;fillColor=none;align=center;verticalAlign=middle;whiteSpace=wrap;rounded=0;fontSize=9;" vertex="1" parent="WIyWlLk6GJQsqaUBKTNV-1">
          <mxGeometry x="520" y="1051" width="30" height="25" as="geometry" />
        </mxCell>
        <mxCell id="1y-8TdBXX_tXYGB50Xov-121" value="Yes" style="text;html=1;strokeColor=none;fillColor=none;align=center;verticalAlign=middle;whiteSpace=wrap;rounded=0;fontSize=9;" vertex="1" parent="WIyWlLk6GJQsqaUBKTNV-1">
          <mxGeometry x="520" y="851" width="30" height="25" as="geometry" />
        </mxCell>
        <mxCell id="1y-8TdBXX_tXYGB50Xov-122" value="Yes" style="text;html=1;strokeColor=none;fillColor=none;align=center;verticalAlign=middle;whiteSpace=wrap;rounded=0;fontSize=9;" vertex="1" parent="WIyWlLk6GJQsqaUBKTNV-1">
          <mxGeometry x="520" y="751" width="30" height="25" as="geometry" />
        </mxCell>
        <mxCell id="1y-8TdBXX_tXYGB50Xov-123" value="No" style="text;html=1;strokeColor=none;fillColor=none;align=center;verticalAlign=middle;whiteSpace=wrap;rounded=0;fontSize=9;" vertex="1" parent="WIyWlLk6GJQsqaUBKTNV-1">
          <mxGeometry x="470" y="816" width="30" height="25" as="geometry" />
        </mxCell>
        <mxCell id="1y-8TdBXX_tXYGB50Xov-124" value="No" style="text;html=1;strokeColor=none;fillColor=none;align=center;verticalAlign=middle;whiteSpace=wrap;rounded=0;fontSize=9;" vertex="1" parent="WIyWlLk6GJQsqaUBKTNV-1">
          <mxGeometry x="470" y="916" width="30" height="25" as="geometry" />
        </mxCell>
        <mxCell id="1y-8TdBXX_tXYGB50Xov-125" value="No" style="text;html=1;strokeColor=none;fillColor=none;align=center;verticalAlign=middle;whiteSpace=wrap;rounded=0;fontSize=9;" vertex="1" parent="WIyWlLk6GJQsqaUBKTNV-1">
          <mxGeometry x="470" y="1016" width="30" height="25" as="geometry" />
        </mxCell>
        <mxCell id="1y-8TdBXX_tXYGB50Xov-126" value="No" style="text;html=1;strokeColor=none;fillColor=none;align=center;verticalAlign=middle;whiteSpace=wrap;rounded=0;fontSize=9;" vertex="1" parent="WIyWlLk6GJQsqaUBKTNV-1">
          <mxGeometry x="470" y="1116" width="30" height="25" as="geometry" />
        </mxCell>
        <mxCell id="1y-8TdBXX_tXYGB50Xov-127" value="No" style="text;html=1;strokeColor=none;fillColor=none;align=center;verticalAlign=middle;whiteSpace=wrap;rounded=0;fontSize=9;" vertex="1" parent="WIyWlLk6GJQsqaUBKTNV-1">
          <mxGeometry x="470" y="1216" width="30" height="25" as="geometry" />
        </mxCell>
        <mxCell id="1y-8TdBXX_tXYGB50Xov-128" value="" style="endArrow=classic;html=1;rounded=0;exitX=0;exitY=0.5;exitDx=0;exitDy=0;entryX=0;entryY=0.5;entryDx=0;entryDy=0;" edge="1" parent="WIyWlLk6GJQsqaUBKTNV-1" source="1y-8TdBXX_tXYGB50Xov-6" target="1y-8TdBXX_tXYGB50Xov-22">
          <mxGeometry width="50" height="50" relative="1" as="geometry">
            <mxPoint x="460" y="160" as="sourcePoint" />
            <mxPoint x="510" y="110" as="targetPoint" />
            <Array as="points">
              <mxPoint x="20" y="305" />
            </Array>
          </mxGeometry>
        </mxCell>
        <mxCell id="1y-8TdBXX_tXYGB50Xov-129" value="Set&amp;nbsp;&amp;nbsp;updateError = false" style="rounded=1;whiteSpace=wrap;html=1;" vertex="1" parent="WIyWlLk6GJQsqaUBKTNV-1">
          <mxGeometry x="397.5" y="1290" width="135" height="20" as="geometry" />
        </mxCell>
        <mxCell id="1y-8TdBXX_tXYGB50Xov-130" value="!IsNullOrEmpty&lt;br&gt;(result)?" style="rhombus;whiteSpace=wrap;html=1;" vertex="1" parent="WIyWlLk6GJQsqaUBKTNV-1">
          <mxGeometry x="402.5" y="1330" width="125" height="80" as="geometry" />
        </mxCell>
        <mxCell id="1y-8TdBXX_tXYGB50Xov-131" value="updateError?" style="rhombus;whiteSpace=wrap;html=1;" vertex="1" parent="WIyWlLk6GJQsqaUBKTNV-1">
          <mxGeometry x="402.5" y="1430" width="125" height="80" as="geometry" />
        </mxCell>
        <mxCell id="1y-8TdBXX_tXYGB50Xov-132" value="" style="endArrow=classic;html=1;rounded=0;exitX=0.5;exitY=1;exitDx=0;exitDy=0;entryX=0.5;entryY=0;entryDx=0;entryDy=0;" edge="1" parent="WIyWlLk6GJQsqaUBKTNV-1" source="1y-8TdBXX_tXYGB50Xov-97" target="1y-8TdBXX_tXYGB50Xov-129">
          <mxGeometry width="50" height="50" relative="1" as="geometry">
            <mxPoint x="460" y="1400" as="sourcePoint" />
            <mxPoint x="510" y="1350" as="targetPoint" />
          </mxGeometry>
        </mxCell>
        <mxCell id="1y-8TdBXX_tXYGB50Xov-133" value="" style="endArrow=classic;html=1;rounded=0;exitX=0.5;exitY=1;exitDx=0;exitDy=0;entryX=0.5;entryY=0;entryDx=0;entryDy=0;" edge="1" parent="WIyWlLk6GJQsqaUBKTNV-1" source="1y-8TdBXX_tXYGB50Xov-129" target="1y-8TdBXX_tXYGB50Xov-130">
          <mxGeometry width="50" height="50" relative="1" as="geometry">
            <mxPoint x="565" y="1370" as="sourcePoint" />
            <mxPoint x="615" y="1320" as="targetPoint" />
          </mxGeometry>
        </mxCell>
        <mxCell id="1y-8TdBXX_tXYGB50Xov-134" value="" style="endArrow=classic;html=1;rounded=0;exitX=0.5;exitY=1;exitDx=0;exitDy=0;entryX=0.5;entryY=0;entryDx=0;entryDy=0;" edge="1" parent="WIyWlLk6GJQsqaUBKTNV-1" source="1y-8TdBXX_tXYGB50Xov-130" target="1y-8TdBXX_tXYGB50Xov-131">
          <mxGeometry width="50" height="50" relative="1" as="geometry">
            <mxPoint x="527.5" y="1430" as="sourcePoint" />
            <mxPoint x="577.5" y="1380" as="targetPoint" />
          </mxGeometry>
        </mxCell>
        <mxCell id="1y-8TdBXX_tXYGB50Xov-135" value="updateError = true&lt;br&gt;result = null" style="rounded=1;whiteSpace=wrap;html=1;" vertex="1" parent="WIyWlLk6GJQsqaUBKTNV-1">
          <mxGeometry x="590" y="1350" width="110" height="40" as="geometry" />
        </mxCell>
        <mxCell id="1y-8TdBXX_tXYGB50Xov-136" value="" style="endArrow=classic;html=1;rounded=0;exitX=1;exitY=0.5;exitDx=0;exitDy=0;entryX=0;entryY=0.5;entryDx=0;entryDy=0;" edge="1" parent="WIyWlLk6GJQsqaUBKTNV-1" source="1y-8TdBXX_tXYGB50Xov-130" target="1y-8TdBXX_tXYGB50Xov-135">
          <mxGeometry width="50" height="50" relative="1" as="geometry">
            <mxPoint x="540" y="1395" as="sourcePoint" />
            <mxPoint x="590" y="1345" as="targetPoint" />
          </mxGeometry>
        </mxCell>
        <mxCell id="1y-8TdBXX_tXYGB50Xov-137" value="" style="endArrow=classic;html=1;rounded=0;exitX=1;exitY=0.5;exitDx=0;exitDy=0;entryX=0;entryY=0.5;entryDx=0;entryDy=0;" edge="1" parent="WIyWlLk6GJQsqaUBKTNV-1" source="1y-8TdBXX_tXYGB50Xov-74" target="1y-8TdBXX_tXYGB50Xov-127">
          <mxGeometry width="50" height="50" relative="1" as="geometry">
            <mxPoint x="460" y="1200" as="sourcePoint" />
            <mxPoint x="510" y="1150" as="targetPoint" />
            <Array as="points">
              <mxPoint x="800" y="780" />
              <mxPoint x="800" y="820" />
              <mxPoint x="800" y="881" />
              <mxPoint x="800" y="910" />
              <mxPoint x="800" y="960" />
              <mxPoint x="800" y="1060" />
              <mxPoint x="800" y="1229" />
            </Array>
          </mxGeometry>
        </mxCell>
        <mxCell id="1y-8TdBXX_tXYGB50Xov-141" value="" style="endArrow=classic;html=1;rounded=0;exitX=1;exitY=0.5;exitDx=0;exitDy=0;" edge="1" parent="WIyWlLk6GJQsqaUBKTNV-1" source="1y-8TdBXX_tXYGB50Xov-80">
          <mxGeometry width="50" height="50" relative="1" as="geometry">
            <mxPoint x="760" y="926" as="sourcePoint" />
            <mxPoint x="800" y="880" as="targetPoint" />
          </mxGeometry>
        </mxCell>
        <mxCell id="1y-8TdBXX_tXYGB50Xov-142" value="" style="endArrow=classic;html=1;rounded=0;exitX=1;exitY=0.5;exitDx=0;exitDy=0;" edge="1" parent="WIyWlLk6GJQsqaUBKTNV-1" source="1y-8TdBXX_tXYGB50Xov-81">
          <mxGeometry width="50" height="50" relative="1" as="geometry">
            <mxPoint x="777" y="1001" as="sourcePoint" />
            <mxPoint x="800" y="980" as="targetPoint" />
          </mxGeometry>
        </mxCell>
        <mxCell id="1y-8TdBXX_tXYGB50Xov-143" value="" style="endArrow=classic;html=1;rounded=0;exitX=1;exitY=0.5;exitDx=0;exitDy=0;" edge="1" parent="WIyWlLk6GJQsqaUBKTNV-1" source="1y-8TdBXX_tXYGB50Xov-82">
          <mxGeometry width="50" height="50" relative="1" as="geometry">
            <mxPoint x="810" y="1121" as="sourcePoint" />
            <mxPoint x="800" y="1080" as="targetPoint" />
          </mxGeometry>
        </mxCell>
        <mxCell id="1y-8TdBXX_tXYGB50Xov-144" value="" style="endArrow=classic;html=1;rounded=0;exitX=1;exitY=0.5;exitDx=0;exitDy=0;" edge="1" parent="WIyWlLk6GJQsqaUBKTNV-1" source="1y-8TdBXX_tXYGB50Xov-83">
          <mxGeometry width="50" height="50" relative="1" as="geometry">
            <mxPoint x="810" y="1187.5" as="sourcePoint" />
            <mxPoint x="800" y="1180" as="targetPoint" />
          </mxGeometry>
        </mxCell>
        <mxCell id="1y-8TdBXX_tXYGB50Xov-145" value="" style="endArrow=classic;html=1;rounded=0;exitX=0.5;exitY=1;exitDx=0;exitDy=0;" edge="1" parent="WIyWlLk6GJQsqaUBKTNV-1" source="1y-8TdBXX_tXYGB50Xov-135">
          <mxGeometry width="50" height="50" relative="1" as="geometry">
            <mxPoint x="670" y="1440" as="sourcePoint" />
            <mxPoint x="470" y="1420" as="targetPoint" />
            <Array as="points">
              <mxPoint x="645" y="1420" />
            </Array>
          </mxGeometry>
        </mxCell>
        <mxCell id="1y-8TdBXX_tXYGB50Xov-146" value="Yes" style="text;html=1;strokeColor=none;fillColor=none;align=center;verticalAlign=middle;whiteSpace=wrap;rounded=0;fontSize=9;" vertex="1" parent="WIyWlLk6GJQsqaUBKTNV-1">
          <mxGeometry x="530" y="1340" width="30" height="25" as="geometry" />
        </mxCell>
        <mxCell id="1y-8TdBXX_tXYGB50Xov-147" value="No" style="text;html=1;strokeColor=none;fillColor=none;align=center;verticalAlign=middle;whiteSpace=wrap;rounded=0;fontSize=9;" vertex="1" parent="WIyWlLk6GJQsqaUBKTNV-1">
          <mxGeometry x="430" y="1405" width="30" height="25" as="geometry" />
        </mxCell>
        <mxCell id="1y-8TdBXX_tXYGB50Xov-148" value="&lt;div&gt;Set result = fileManager.UpdateFiles(backupPath, installationFolder)&lt;/div&gt;&lt;div&gt;&amp;nbsp; &amp;nbsp; &amp;nbsp; &amp;nbsp; &amp;nbsp; &amp;nbsp; &amp;nbsp; &amp;nbsp; &amp;nbsp;&amp;nbsp;&lt;/div&gt;" style="rounded=1;whiteSpace=wrap;html=1;" vertex="1" parent="WIyWlLk6GJQsqaUBKTNV-1">
          <mxGeometry x="590" y="1445" width="210" height="50" as="geometry" />
        </mxCell>
        <mxCell id="1y-8TdBXX_tXYGB50Xov-149" value="&amp;nbsp; fileManager.&lt;br&gt;RemoveDirectoryContents&lt;br&gt;(backupPath)" style="rounded=1;whiteSpace=wrap;html=1;" vertex="1" parent="WIyWlLk6GJQsqaUBKTNV-1">
          <mxGeometry x="615" y="1510" width="160" height="50" as="geometry" />
        </mxCell>
        <mxCell id="1y-8TdBXX_tXYGB50Xov-150" value="fileManager&lt;br&gt;RemoveDirectory&lt;br&gt;Contents(backupPath)" style="rounded=1;whiteSpace=wrap;html=1;" vertex="1" parent="WIyWlLk6GJQsqaUBKTNV-1">
          <mxGeometry x="405" y="1540" width="120" height="40" as="geometry" />
        </mxCell>
        <mxCell id="1y-8TdBXX_tXYGB50Xov-151" value="fileManager&lt;br&gt;RemoveDirectory&lt;br&gt;Contents(monitorFilesLocation)" style="rounded=1;whiteSpace=wrap;html=1;" vertex="1" parent="WIyWlLk6GJQsqaUBKTNV-1">
          <mxGeometry x="381.25" y="1610" width="167.5" height="40" as="geometry" />
        </mxCell>
        <mxCell id="1y-8TdBXX_tXYGB50Xov-152" value="Directory&lt;br&gt;Delete(backupPath)" style="rounded=1;whiteSpace=wrap;html=1;" vertex="1" parent="WIyWlLk6GJQsqaUBKTNV-1">
          <mxGeometry x="405" y="1680" width="120" height="40" as="geometry" />
        </mxCell>
        <mxCell id="1y-8TdBXX_tXYGB50Xov-153" value="Directory&lt;br&gt;Delete(monitorFilesLocation)" style="rounded=1;whiteSpace=wrap;html=1;" vertex="1" parent="WIyWlLk6GJQsqaUBKTNV-1">
          <mxGeometry x="387.5" y="1750" width="155" height="40" as="geometry" />
        </mxCell>
        <mxCell id="1y-8TdBXX_tXYGB50Xov-154" value="ReleaseUpdateMonitorTask" style="rounded=1;whiteSpace=wrap;html=1;" vertex="1" parent="WIyWlLk6GJQsqaUBKTNV-1">
          <mxGeometry x="387.5" y="1820" width="155" height="40" as="geometry" />
        </mxCell>
        <mxCell id="1y-8TdBXX_tXYGB50Xov-155" value="End" style="ellipse;whiteSpace=wrap;html=1;" vertex="1" parent="WIyWlLk6GJQsqaUBKTNV-1">
          <mxGeometry x="430" y="1890" width="70" height="30" as="geometry" />
        </mxCell>
        <mxCell id="1y-8TdBXX_tXYGB50Xov-156" value="" style="endArrow=classic;html=1;rounded=0;exitX=0.5;exitY=1;exitDx=0;exitDy=0;entryX=0.5;entryY=0;entryDx=0;entryDy=0;" edge="1" parent="WIyWlLk6GJQsqaUBKTNV-1" source="1y-8TdBXX_tXYGB50Xov-131" target="1y-8TdBXX_tXYGB50Xov-150">
          <mxGeometry width="50" height="50" relative="1" as="geometry">
            <mxPoint x="460" y="1720" as="sourcePoint" />
            <mxPoint x="510" y="1670" as="targetPoint" />
          </mxGeometry>
        </mxCell>
        <mxCell id="1y-8TdBXX_tXYGB50Xov-157" value="" style="endArrow=classic;html=1;rounded=0;exitX=0.5;exitY=1;exitDx=0;exitDy=0;entryX=0.5;entryY=0;entryDx=0;entryDy=0;" edge="1" parent="WIyWlLk6GJQsqaUBKTNV-1" source="1y-8TdBXX_tXYGB50Xov-150" target="1y-8TdBXX_tXYGB50Xov-151">
          <mxGeometry width="50" height="50" relative="1" as="geometry">
            <mxPoint x="460" y="1720" as="sourcePoint" />
            <mxPoint x="510" y="1670" as="targetPoint" />
          </mxGeometry>
        </mxCell>
        <mxCell id="1y-8TdBXX_tXYGB50Xov-159" value="" style="endArrow=classic;html=1;rounded=0;exitX=0.5;exitY=1;exitDx=0;exitDy=0;entryX=0.5;entryY=0;entryDx=0;entryDy=0;" edge="1" parent="WIyWlLk6GJQsqaUBKTNV-1" source="1y-8TdBXX_tXYGB50Xov-151" target="1y-8TdBXX_tXYGB50Xov-152">
          <mxGeometry width="50" height="50" relative="1" as="geometry">
            <mxPoint x="460" y="1720" as="sourcePoint" />
            <mxPoint x="510" y="1670" as="targetPoint" />
          </mxGeometry>
        </mxCell>
        <mxCell id="1y-8TdBXX_tXYGB50Xov-160" value="" style="endArrow=classic;html=1;rounded=0;exitX=0.5;exitY=1;exitDx=0;exitDy=0;" edge="1" parent="WIyWlLk6GJQsqaUBKTNV-1" source="1y-8TdBXX_tXYGB50Xov-152" target="1y-8TdBXX_tXYGB50Xov-153">
          <mxGeometry width="50" height="50" relative="1" as="geometry">
            <mxPoint x="590" y="1760" as="sourcePoint" />
            <mxPoint x="640" y="1710" as="targetPoint" />
          </mxGeometry>
        </mxCell>
        <mxCell id="1y-8TdBXX_tXYGB50Xov-161" value="" style="endArrow=classic;html=1;rounded=0;exitX=0.5;exitY=1;exitDx=0;exitDy=0;entryX=0.5;entryY=0;entryDx=0;entryDy=0;" edge="1" parent="WIyWlLk6GJQsqaUBKTNV-1" source="1y-8TdBXX_tXYGB50Xov-153" target="1y-8TdBXX_tXYGB50Xov-154">
          <mxGeometry width="50" height="50" relative="1" as="geometry">
            <mxPoint x="460" y="1720" as="sourcePoint" />
            <mxPoint x="510" y="1670" as="targetPoint" />
          </mxGeometry>
        </mxCell>
        <mxCell id="1y-8TdBXX_tXYGB50Xov-162" value="" style="endArrow=classic;html=1;rounded=0;exitX=0.5;exitY=1;exitDx=0;exitDy=0;entryX=0.5;entryY=0;entryDx=0;entryDy=0;" edge="1" parent="WIyWlLk6GJQsqaUBKTNV-1" source="1y-8TdBXX_tXYGB50Xov-154" target="1y-8TdBXX_tXYGB50Xov-155">
          <mxGeometry width="50" height="50" relative="1" as="geometry">
            <mxPoint x="460" y="1720" as="sourcePoint" />
            <mxPoint x="510" y="1670" as="targetPoint" />
          </mxGeometry>
        </mxCell>
        <mxCell id="1y-8TdBXX_tXYGB50Xov-163" value="" style="endArrow=classic;html=1;rounded=0;exitX=1;exitY=0.5;exitDx=0;exitDy=0;entryX=0;entryY=0.5;entryDx=0;entryDy=0;" edge="1" parent="WIyWlLk6GJQsqaUBKTNV-1" source="1y-8TdBXX_tXYGB50Xov-131" target="1y-8TdBXX_tXYGB50Xov-148">
          <mxGeometry width="50" height="50" relative="1" as="geometry">
            <mxPoint x="460" y="1630" as="sourcePoint" />
            <mxPoint x="510" y="1580" as="targetPoint" />
          </mxGeometry>
        </mxCell>
        <mxCell id="1y-8TdBXX_tXYGB50Xov-164" value="" style="endArrow=classic;html=1;rounded=0;exitX=0.5;exitY=1;exitDx=0;exitDy=0;" edge="1" parent="WIyWlLk6GJQsqaUBKTNV-1" source="1y-8TdBXX_tXYGB50Xov-148" target="1y-8TdBXX_tXYGB50Xov-149">
          <mxGeometry width="50" height="50" relative="1" as="geometry">
            <mxPoint x="660" y="1680" as="sourcePoint" />
            <mxPoint x="710" y="1630" as="targetPoint" />
          </mxGeometry>
        </mxCell>
        <mxCell id="1y-8TdBXX_tXYGB50Xov-168" value="" style="endArrow=classic;html=1;rounded=0;exitX=0;exitY=0.5;exitDx=0;exitDy=0;" edge="1" parent="WIyWlLk6GJQsqaUBKTNV-1" source="1y-8TdBXX_tXYGB50Xov-149">
          <mxGeometry width="50" height="50" relative="1" as="geometry">
            <mxPoint x="650" y="1650" as="sourcePoint" />
            <mxPoint x="470" y="1520" as="targetPoint" />
            <Array as="points">
              <mxPoint x="560" y="1535" />
              <mxPoint x="560" y="1520" />
            </Array>
          </mxGeometry>
        </mxCell>
        <mxCell id="1y-8TdBXX_tXYGB50Xov-169" value="Yes" style="text;html=1;strokeColor=none;fillColor=none;align=center;verticalAlign=middle;whiteSpace=wrap;rounded=0;fontSize=9;" vertex="1" parent="WIyWlLk6GJQsqaUBKTNV-1">
          <mxGeometry x="530" y="1445" width="30" height="25" as="geometry" />
        </mxCell>
        <mxCell id="1y-8TdBXX_tXYGB50Xov-170" value="No" style="text;html=1;strokeColor=none;fillColor=none;align=center;verticalAlign=middle;whiteSpace=wrap;rounded=0;fontSize=9;" vertex="1" parent="WIyWlLk6GJQsqaUBKTNV-1">
          <mxGeometry x="430" y="1510" width="30" height="25" as="geometry" />
        </mxCell>
        <mxCell id="1y-8TdBXX_tXYGB50Xov-171" value="MonitorUpdaterManager" style="text;html=1;strokeColor=none;fillColor=none;align=center;verticalAlign=middle;whiteSpace=wrap;rounded=0;fontSize=30;labelBorderColor=none;fontColor=#000000;fontStyle=4" vertex="1" parent="WIyWlLk6GJQsqaUBKTNV-1">
          <mxGeometry x="470" y="49" width="330" height="30" as="geometry" />
        </mxCell>
        <mxCell id="1y-8TdBXX_tXYGB50Xov-174" value="Miguel Saucedo" style="text;html=1;strokeColor=none;fillColor=none;align=center;verticalAlign=middle;whiteSpace=wrap;rounded=0;fontSize=18;" vertex="1" parent="WIyWlLk6GJQsqaUBKTNV-1">
          <mxGeometry x="620" y="90" width="180" height="30" as="geometry" />
        </mxCell>
        <mxCell id="1y-8TdBXX_tXYGB50Xov-175" value="Date: 3/30/2023" style="text;html=1;strokeColor=none;fillColor=none;align=center;verticalAlign=middle;whiteSpace=wrap;rounded=0;fontSize=13;" vertex="1" parent="WIyWlLk6GJQsqaUBKTNV-1">
          <mxGeometry x="640" y="120" width="130" height="30" as="geometry" />
        </mxCell>
      </root>
    </mxGraphModel>
  </diagram>
</mxfile>
